<svg width="25" height="16" viewBox="0 0 25 16" fill="none" xmlns="http://www.w3.org/2000/svg">
<path fill-rule="evenodd" clip-rule="evenodd" d="M24.6925 0.278614C25.0909 0.661089 25.1039 1.29412 24.7214 1.69253L18.0014 8.69253C17.8128 8.88896 17.5523 9 17.28 9C17.0077 9 16.7472 8.88896 16.5586 8.69253L12.48 4.44398L7.64671 9.47866L11.0903 12.7845L0 16L2.76039 4.78779L6.20393 8.0936L11.7586 2.30747C11.9472 2.11104 12.2077 2 12.48 2C12.7523 2 13.0128 2.11104 13.2014 2.30747L17.28 6.55602L23.2786 0.307469C23.6611 -0.0909418 24.2941 -0.103861 24.6925 0.278614Z" fill="black"/>
</svg>
