<svg width="25" height="16" viewBox="0 0 25 16" fill="none" xmlns="http://www.w3.org/2000/svg">
<path fill-rule="evenodd" clip-rule="evenodd" d="M13.9098 3.21554L25 0L22.2396 11.2122L18.7961 7.9064L13.2414 13.6925C13.0528 13.889 12.7923 14 12.52 14C12.2477 14 11.9872 13.889 11.7986 13.6925L7.72 9.44398L1.72139 15.6925C1.33891 16.0909 0.705881 16.1039 0.307469 15.7214C-0.0909418 15.3389 -0.103861 14.7059 0.278614 14.3075L6.99861 7.30747C7.18719 7.11104 7.44771 7 7.72 7C7.9923 7 8.25282 7.11104 8.44139 7.30747L12.52 11.556L17.3533 6.52134L13.9098 3.21554Z" fill="black"/>
</svg>
