<svg width="33" height="33" viewBox="0 0 33 33" fill="none" xmlns="http://www.w3.org/2000/svg">
<path d="M12.0558 14.6618C12.2488 14.5504 12.409 14.3902 12.5204 14.1972C12.6318 14.0043 12.6904 13.7854 12.6903 13.5626V2.14146C12.6892 1.93914 12.6397 1.74002 12.546 1.56071C12.4523 1.38141 12.317 1.22711 12.1516 1.11069C11.9861 0.994266 11.7952 0.919098 11.5948 0.891452C11.3943 0.863806 11.1902 0.884483 10.9994 0.951759C7.29543 2.26267 4.18054 4.85182 2.21468 8.25376C0.248826 11.6557 -0.43907 15.6473 0.274656 19.5111C0.311651 19.7109 0.396084 19.8988 0.520854 20.0592C0.645623 20.2196 0.807081 20.3477 0.991648 20.4327C1.15798 20.5105 1.33943 20.5505 1.52305 20.5501C1.74578 20.5501 1.96461 20.4916 2.15755 20.3803L12.0558 14.6618ZM10.1523 4.06401V12.8297L2.55729 17.2126C2.53826 16.973 2.53826 16.7319 2.53826 16.4971C2.54051 13.9248 3.25254 11.403 4.59595 9.20928C5.93936 7.0156 7.86205 5.23517 10.1523 4.06401ZM32.9945 16.4971C32.9958 20.1188 31.8052 23.6402 29.6066 26.5181C27.4079 29.396 24.3233 31.4704 20.8288 32.4213C17.3342 33.3721 13.6238 33.1466 10.2701 31.7795C6.91636 30.4124 4.10571 27.9797 2.27176 24.8568C2.18627 24.7125 2.13021 24.5527 2.10683 24.3867C2.08345 24.2207 2.09321 24.0516 2.13554 23.8894C2.17787 23.7271 2.25194 23.5749 2.35346 23.4414C2.45499 23.308 2.58195 23.196 2.72702 23.1119L15.2284 15.8357V1.26901C15.2284 0.932449 15.3621 0.609671 15.6001 0.371685C15.838 0.133699 16.1608 0 16.4974 0C19.3762 0.0014689 22.2047 0.755909 24.7018 2.18842C27.199 3.62093 29.278 5.68169 30.7325 8.16609C30.75 8.19147 30.7658 8.21685 30.7817 8.24382C30.7976 8.27078 30.8134 8.30251 30.8277 8.33106C32.2511 10.817 32.9982 13.6325 32.9945 16.4971Z" fill="black"/>
</svg>
