<svg width="33" height="27" viewBox="0 0 33 27" fill="none" xmlns="http://www.w3.org/2000/svg">
<path d="M30.4615 3.80769H16.9236L12.5225 0.507692C12.0825 0.179366 11.5485 0.00136179 10.9995 0H2.53846C1.86522 0 1.21955 0.267444 0.743498 0.743498C0.267444 1.21955 0 1.86522 0 2.53846V24.1154C0 24.7886 0.267444 25.4343 0.743498 25.9103C1.21955 26.3864 1.86522 26.6538 2.53846 26.6538H30.4615C31.1348 26.6538 31.7804 26.3864 32.2565 25.9103C32.7326 25.4343 33 24.7886 33 24.1154V6.34615C33 5.67291 32.7326 5.02724 32.2565 4.55119C31.7804 4.07514 31.1348 3.80769 30.4615 3.80769ZM2.53846 2.53846H10.9995L14.3851 5.07692L10.9995 7.61538H2.53846V2.53846ZM30.4615 24.1154H2.53846V10.1538H10.9995C11.5485 10.1525 12.0825 9.97448 12.5225 9.64615L16.9236 6.34615H30.4615V24.1154Z" fill="black"/>
</svg>
